<svg width="24" height="24" viewBox="0 0 24 24" fill="none" xmlns="http://www.w3.org/2000/svg">
<g clip-path="url(#clip0_1_726)">
<path d="M1.61157 15.6489C1.7763 17.2956 3.08345 18.6317 4.72625 18.8323C5.96081 18.983 7.22864 19.1129 8.52138 19.1129C9.81411 19.1129 11.0819 18.983 12.3165 18.8323C13.9593 18.6317 15.2664 17.2956 15.4312 15.6489C15.5736 14.2253 15.6999 12.7602 15.6999 11.2645C15.6999 9.76882 15.5736 8.30374 15.4312 6.88013C15.2664 5.23333 13.9593 3.89732 12.3165 3.69678C11.0819 3.54606 9.81411 3.41614 8.52138 3.41614C7.22864 3.41614 5.96081 3.54606 4.72625 3.69678C3.08345 3.89732 1.7763 5.23333 1.61157 6.88013C1.46916 8.30374 1.3428 9.76882 1.3428 11.2645C1.3428 12.7602 1.46916 14.2253 1.61157 15.6489Z" fill="#20083F" fill-opacity="0.1"/>
<path d="M15.3028 6.2281C14.905 4.89121 13.7361 3.87008 12.3165 3.69678C11.0819 3.54606 9.81411 3.41614 8.52138 3.41614C7.22864 3.41614 5.96081 3.54606 4.72625 3.69678C3.08345 3.89732 1.7763 5.23333 1.61157 6.88013C1.46916 8.30374 1.3428 9.76882 1.3428 11.2645C1.3428 12.7602 1.46916 14.2253 1.61157 15.6489C1.7763 17.2956 3.08345 18.6317 4.72625 18.8323C5.32501 18.9053 5.9316 18.9736 6.54505 19.0245" stroke="#150925" stroke-width="1.5" stroke-linecap="round"/>
<path d="M4.74457 3.59025C4.74457 4.80355 5.89923 5.7156 7.11066 5.78292C7.57343 5.80862 8.04416 5.82686 8.52135 5.82686C8.99853 5.82686 9.46928 5.80862 9.93205 5.78292C11.1435 5.7156 12.2981 4.80355 12.2981 3.59025C12.2981 2.37694 11.1435 1.46488 9.93205 1.39758C9.46928 1.37186 8.99855 1.35364 8.52135 1.35364C8.04416 1.35364 7.57343 1.37186 7.11066 1.39758C5.89923 1.46488 4.74457 2.37694 4.74457 3.59025Z" fill="white" stroke="#150925" stroke-width="1.5"/>
<path d="M10.945 19.3274C11.1011 20.975 12.4152 22.3229 14.0597 22.5098C14.9279 22.6085 15.8148 22.6848 16.7164 22.6848C17.618 22.6848 18.505 22.6085 19.3731 22.5098C21.0176 22.3229 22.3318 20.975 22.4878 19.3274C22.585 18.302 22.6628 17.2522 22.6628 16.1834C22.6628 15.1147 22.585 14.0648 22.4878 13.0396C22.3318 11.392 21.0176 10.0439 19.3731 9.85712C18.505 9.75848 17.618 9.68219 16.7164 9.68219C15.8148 9.68219 14.9279 9.75848 14.0597 9.85712C12.4152 10.0439 11.1011 11.392 10.945 13.0396C10.8479 14.0648 10.77 15.1147 10.77 16.1834C10.77 17.2522 10.8479 18.302 10.945 19.3274Z" fill="white" stroke="#150925" stroke-width="1.5"/>
<path d="M18.5139 14.3397H14.9189" stroke="#150925" stroke-width="1.5" stroke-linecap="round"/>
<path d="M18.5139 18.3873H14.9189" stroke="#150925" stroke-width="1.5" stroke-linecap="round"/>
</g>
<defs>
<clipPath id="clip0_1_726">
<rect width="24" height="24" fill="white"/>
</clipPath>
</defs>
</svg>
